G04 Layer: TopLayer*
G04 EasyEDA v6.4.25, 2022-02-04T10:32:35+01:00*
G04 956263b731bf459f90372ec277b1d7cd,10*
G04 Gerber Generator version 0.2*
G04 Scale: 100 percent, Rotated: No, Reflected: No *
G04 Dimensions in millimeters *
G04 leading zeros omitted , absolute positions ,4 integer and 5 decimal *
%FSLAX45Y45*%
%MOMM*%

%ADD11R,1.7780X1.7780*%
%ADD12C,1.7780*%
%ADD13C,1.5748*%
%ADD14C,1.8796*%
%ADD15C,1.6000*%

%LPD*%
D11*
G01*
X812800Y-1409700D03*
D12*
G01*
X812800Y-1663700D03*
G01*
X812800Y-1917700D03*
G01*
X812800Y-2171700D03*
G01*
X812800Y-2425700D03*
G01*
X812800Y-2679700D03*
G01*
X812800Y-2933700D03*
G01*
X812800Y-3187700D03*
G01*
X812800Y-3441700D03*
G01*
X812800Y-3695700D03*
G01*
X812800Y-3949700D03*
G01*
X812800Y-4203700D03*
G01*
X812800Y-4457700D03*
G01*
X812800Y-4711700D03*
G01*
X812800Y-4965700D03*
G01*
X2336800Y-1409700D03*
G01*
X2336800Y-1663700D03*
G01*
X2336800Y-1917700D03*
G01*
X2336800Y-2171700D03*
G01*
X2336800Y-2425700D03*
G01*
X2336800Y-2679700D03*
G01*
X2336800Y-2933700D03*
G01*
X2336800Y-3187700D03*
G01*
X2336800Y-3441700D03*
G01*
X2336800Y-3695700D03*
G01*
X2336800Y-3949700D03*
G01*
X2336800Y-4203700D03*
G01*
X2336800Y-4457700D03*
G01*
X2336800Y-4711700D03*
G01*
X2336800Y-4965700D03*
D13*
G01*
X1435100Y-2146300D03*
G01*
X1689100Y-2146300D03*
G01*
X1943100Y-2146300D03*
G01*
X1181100Y-2146300D03*
D14*
G01*
X1981200Y-1587500D03*
G01*
X1219200Y-1587500D03*
G01*
X1143000Y-1244600D03*
G01*
X1905000Y-1244600D03*
G01*
X1295400Y-4749800D03*
G01*
X1295400Y-3987800D03*
G01*
X1765300Y-4749800D03*
G01*
X1765300Y-3987800D03*
G01*
X1130300Y-5143500D03*
G01*
X1892300Y-5143500D03*
G01*
X1358900Y-3644900D03*
G01*
X1358900Y-2882900D03*
D15*
X2311400Y-514499D02*
G01*
X2311400Y-374500D01*
X2061387Y-514499D02*
G01*
X2061387Y-374500D01*
X1811401Y-514499D02*
G01*
X1811401Y-374500D01*
X1561388Y-514499D02*
G01*
X1561388Y-374500D01*
X1311402Y-514499D02*
G01*
X1311402Y-374500D01*
X1061389Y-514499D02*
G01*
X1061389Y-374500D01*
X811403Y-514499D02*
G01*
X811403Y-374500D01*
M02*
