M48
METRIC,LZ,000.000
;FILE_FORMAT=3:3
;TYPE=PLATED
;Layer: Drill PTH
;EasyEDA v6.4.25, 2022-02-04T10:32:35+01:00
;956263b731bf459f90372ec277b1d7cd,10
;Gerber Generator version 0.2
;Holesize 1 = 0.889 mm
T01C0.889
;Holesize 2 = 0.900 mm
T02C0.900
;Holesize 3 = 0.915 mm
T03C0.915
;Holesize 4 = 1.101 mm
T04C1.101
%
G05
G90
T01
X014351Y-021463
X016891Y-021463
X019431Y-021463
X011811Y-021463
T02
X019812Y-015875
X012192Y-015875
X011430Y-012446
X019050Y-012446
X012954Y-047498
X012954Y-039878
X017653Y-047498
X017653Y-039878
X011303Y-051435
X018923Y-051435
X013589Y-036449
X013589Y-028829
T03
X008128Y-014097
X008128Y-016637
X008128Y-019177
X008128Y-021717
X008128Y-024257
X008128Y-026797
X008128Y-029337
X008128Y-031877
X008128Y-034417
X008128Y-036957
X008128Y-039497
X008128Y-042037
X008128Y-044577
X008128Y-047117
X008128Y-049657
X023368Y-014097
X023368Y-016637
X023368Y-019177
X023368Y-021717
X023368Y-024257
X023368Y-026797
X023368Y-029337
X023368Y-031877
X023368Y-034417
X023368Y-036957
X023368Y-039497
X023368Y-042037
X023368Y-044577
X023368Y-047117
X023368Y-049657
T04
X023114Y-004445
X020614Y-004445
X018114Y-004445
X015614Y-004445
X013114Y-004445
X010614Y-004445
X008114Y-004445
M30
