G04 Layer: TopSilkLayer*
G04 EasyEDA v6.4.25, 2022-02-04T10:32:35+01:00*
G04 956263b731bf459f90372ec277b1d7cd,10*
G04 Gerber Generator version 0.2*
G04 Scale: 100 percent, Rotated: No, Reflected: No *
G04 Dimensions in millimeters *
G04 leading zeros omitted , absolute positions ,4 integer and 5 decimal *
%FSLAX45Y45*%
%MOMM*%

%ADD10C,0.2540*%
%ADD17C,0.2032*%
%ADD18C,0.2030*%
%ADD19C,0.1524*%

%LPD*%
D19*
X1496821Y-838707D02*
G01*
X1502155Y-849121D01*
X1512570Y-859536D01*
X1522729Y-864615D01*
X1543557Y-864615D01*
X1553971Y-859536D01*
X1564386Y-849121D01*
X1569720Y-838707D01*
X1574800Y-822960D01*
X1574800Y-797052D01*
X1569720Y-781557D01*
X1564386Y-771144D01*
X1553971Y-760729D01*
X1543557Y-755650D01*
X1522729Y-755650D01*
X1512570Y-760729D01*
X1502155Y-771144D01*
X1496821Y-781557D01*
X1462531Y-864615D02*
G01*
X1462531Y-755650D01*
X1462531Y-864615D02*
G01*
X1389887Y-755650D01*
X1389887Y-864615D02*
G01*
X1389887Y-755650D01*
X1355597Y-843787D02*
G01*
X1345184Y-849121D01*
X1329689Y-864615D01*
X1329689Y-755650D01*
X1574800Y-887984D02*
G01*
X1574800Y-996950D01*
X1574800Y-887984D02*
G01*
X1616455Y-996950D01*
X1657857Y-887984D02*
G01*
X1616455Y-996950D01*
X1657857Y-887984D02*
G01*
X1657857Y-996950D01*
X1723389Y-887984D02*
G01*
X1712976Y-893063D01*
X1702562Y-903478D01*
X1697481Y-913892D01*
X1692147Y-929639D01*
X1692147Y-955547D01*
X1697481Y-971042D01*
X1702562Y-981455D01*
X1712976Y-991870D01*
X1723389Y-996950D01*
X1744218Y-996950D01*
X1754631Y-991870D01*
X1765045Y-981455D01*
X1770126Y-971042D01*
X1775460Y-955547D01*
X1775460Y-929639D01*
X1770126Y-913892D01*
X1765045Y-903478D01*
X1754631Y-893063D01*
X1744218Y-887984D01*
X1723389Y-887984D01*
X1809750Y-887984D02*
G01*
X1809750Y-996950D01*
X1809750Y-887984D02*
G01*
X1846071Y-887984D01*
X1861565Y-893063D01*
X1871979Y-903478D01*
X1877060Y-913892D01*
X1882394Y-929639D01*
X1882394Y-955547D01*
X1877060Y-971042D01*
X1871979Y-981455D01*
X1861565Y-991870D01*
X1846071Y-996950D01*
X1809750Y-996950D01*
X1916684Y-887984D02*
G01*
X1916684Y-965962D01*
X1921763Y-981455D01*
X1932177Y-991870D01*
X1947925Y-996950D01*
X1958340Y-996950D01*
X1973834Y-991870D01*
X1984247Y-981455D01*
X1989327Y-965962D01*
X1989327Y-887984D01*
X2023618Y-887984D02*
G01*
X2023618Y-996950D01*
X2023618Y-996950D02*
G01*
X2086102Y-996950D01*
X2120391Y-908812D02*
G01*
X2130806Y-903478D01*
X2146300Y-887984D01*
X2146300Y-996950D01*
X1562100Y-1878584D02*
G01*
X1562100Y-1987550D01*
X1562100Y-1878584D02*
G01*
X1608836Y-1878584D01*
X1624329Y-1883663D01*
X1629663Y-1888997D01*
X1634744Y-1899412D01*
X1634744Y-1914905D01*
X1629663Y-1925320D01*
X1624329Y-1930400D01*
X1608836Y-1935734D01*
X1562100Y-1935734D01*
X1669034Y-1899412D02*
G01*
X1679447Y-1894078D01*
X1695195Y-1878584D01*
X1695195Y-1987550D01*
X1600200Y-1829815D02*
G01*
X1600200Y-1720850D01*
X1600200Y-1829815D02*
G01*
X1553463Y-1829815D01*
X1537970Y-1824736D01*
X1532636Y-1819402D01*
X1527555Y-1808987D01*
X1527555Y-1798573D01*
X1532636Y-1788160D01*
X1537970Y-1783079D01*
X1553463Y-1778000D01*
X1600200Y-1778000D01*
X1563878Y-1778000D02*
G01*
X1527555Y-1720850D01*
X1430781Y-1814321D02*
G01*
X1436115Y-1824736D01*
X1451610Y-1829815D01*
X1462023Y-1829815D01*
X1477518Y-1824736D01*
X1487931Y-1808987D01*
X1493265Y-1783079D01*
X1493265Y-1757171D01*
X1487931Y-1736344D01*
X1477518Y-1725929D01*
X1462023Y-1720850D01*
X1456689Y-1720850D01*
X1441195Y-1725929D01*
X1430781Y-1736344D01*
X1425702Y-1751837D01*
X1425702Y-1757171D01*
X1430781Y-1772665D01*
X1441195Y-1783079D01*
X1456689Y-1788160D01*
X1462023Y-1788160D01*
X1477518Y-1783079D01*
X1487931Y-1772665D01*
X1493265Y-1757171D01*
X1524000Y-1002284D02*
G01*
X1524000Y-1111250D01*
X1524000Y-1002284D02*
G01*
X1570736Y-1002284D01*
X1586229Y-1007363D01*
X1591563Y-1012697D01*
X1596644Y-1023112D01*
X1596644Y-1033526D01*
X1591563Y-1043939D01*
X1586229Y-1049020D01*
X1570736Y-1054100D01*
X1524000Y-1054100D01*
X1560321Y-1054100D02*
G01*
X1596644Y-1111250D01*
X1703831Y-1002284D02*
G01*
X1651762Y-1111250D01*
X1630934Y-1002284D02*
G01*
X1703831Y-1002284D01*
X1053084Y-4368800D02*
G01*
X1162050Y-4368800D01*
X1053084Y-4368800D02*
G01*
X1053084Y-4322063D01*
X1058163Y-4306570D01*
X1063497Y-4301236D01*
X1073912Y-4296155D01*
X1084326Y-4296155D01*
X1094739Y-4301236D01*
X1099820Y-4306570D01*
X1104900Y-4322063D01*
X1104900Y-4368800D01*
X1104900Y-4332478D02*
G01*
X1162050Y-4296155D01*
X1053084Y-4235704D02*
G01*
X1058163Y-4251452D01*
X1068578Y-4256531D01*
X1078992Y-4256531D01*
X1089405Y-4251452D01*
X1094739Y-4241037D01*
X1099820Y-4220210D01*
X1104900Y-4204715D01*
X1115313Y-4194302D01*
X1125728Y-4188968D01*
X1141476Y-4188968D01*
X1151889Y-4194302D01*
X1156970Y-4199381D01*
X1162050Y-4215129D01*
X1162050Y-4235704D01*
X1156970Y-4251452D01*
X1151889Y-4256531D01*
X1141476Y-4261865D01*
X1125728Y-4261865D01*
X1115313Y-4256531D01*
X1104900Y-4246118D01*
X1099820Y-4230623D01*
X1094739Y-4209795D01*
X1089405Y-4199381D01*
X1078992Y-4194302D01*
X1068578Y-4194302D01*
X1058163Y-4199381D01*
X1053084Y-4215129D01*
X1053084Y-4235704D01*
X1522984Y-4368800D02*
G01*
X1631950Y-4368800D01*
X1522984Y-4368800D02*
G01*
X1522984Y-4322063D01*
X1528063Y-4306570D01*
X1533397Y-4301236D01*
X1543812Y-4296155D01*
X1554226Y-4296155D01*
X1564639Y-4301236D01*
X1569720Y-4306570D01*
X1574800Y-4322063D01*
X1574800Y-4368800D01*
X1574800Y-4332478D02*
G01*
X1631950Y-4296155D01*
X1559305Y-4194302D02*
G01*
X1574800Y-4199381D01*
X1585213Y-4209795D01*
X1590547Y-4225289D01*
X1590547Y-4230623D01*
X1585213Y-4246118D01*
X1574800Y-4256531D01*
X1559305Y-4261865D01*
X1554226Y-4261865D01*
X1538478Y-4256531D01*
X1528063Y-4246118D01*
X1522984Y-4230623D01*
X1522984Y-4225289D01*
X1528063Y-4209795D01*
X1538478Y-4199381D01*
X1559305Y-4194302D01*
X1585213Y-4194302D01*
X1611376Y-4199381D01*
X1626870Y-4209795D01*
X1631950Y-4225289D01*
X1631950Y-4235704D01*
X1626870Y-4251452D01*
X1616455Y-4256531D01*
X1511300Y-4901184D02*
G01*
X1511300Y-5010150D01*
X1511300Y-4901184D02*
G01*
X1558036Y-4901184D01*
X1573529Y-4906263D01*
X1578863Y-4911597D01*
X1583944Y-4922012D01*
X1583944Y-4932426D01*
X1578863Y-4942839D01*
X1573529Y-4947920D01*
X1558036Y-4953000D01*
X1511300Y-4953000D01*
X1547621Y-4953000D02*
G01*
X1583944Y-5010150D01*
X1618234Y-4922012D02*
G01*
X1628647Y-4916678D01*
X1644395Y-4901184D01*
X1644395Y-5010150D01*
X1709673Y-4901184D02*
G01*
X1694179Y-4906263D01*
X1683765Y-4922012D01*
X1678686Y-4947920D01*
X1678686Y-4963413D01*
X1683765Y-4989576D01*
X1694179Y-5005070D01*
X1709673Y-5010150D01*
X1720087Y-5010150D01*
X1735836Y-5005070D01*
X1746250Y-4989576D01*
X1751329Y-4963413D01*
X1751329Y-4947920D01*
X1746250Y-4922012D01*
X1735836Y-4906263D01*
X1720087Y-4901184D01*
X1709673Y-4901184D01*
X1116584Y-3263900D02*
G01*
X1225550Y-3263900D01*
X1116584Y-3263900D02*
G01*
X1116584Y-3217163D01*
X1121663Y-3201670D01*
X1126997Y-3196336D01*
X1137412Y-3191255D01*
X1147826Y-3191255D01*
X1158239Y-3196336D01*
X1163320Y-3201670D01*
X1168400Y-3217163D01*
X1168400Y-3263900D01*
X1168400Y-3227578D02*
G01*
X1225550Y-3191255D01*
X1137412Y-3156965D02*
G01*
X1132078Y-3146552D01*
X1116584Y-3130804D01*
X1225550Y-3130804D01*
X1137412Y-3096513D02*
G01*
X1132078Y-3086100D01*
X1116584Y-3070605D01*
X1225550Y-3070605D01*
D10*
X2535809Y-694486D02*
G01*
X566394Y-694486D01*
X566394Y-204495D01*
X2535809Y-204495D01*
X2535809Y-694486D01*
X685800Y-5346700D02*
G01*
X2463800Y-5346700D01*
X2463800Y-5346700D02*
G01*
X2463800Y-1028700D01*
X2463800Y-1028700D02*
G01*
X685800Y-1028700D01*
X685800Y-1028700D02*
G01*
X685800Y-5346700D01*
D17*
X2070100Y-2019300D02*
G01*
X2070100Y-2273300D01*
X1054100Y-2273300D01*
X1054100Y-2019300D01*
X1244600Y-2019300D01*
D18*
X2070100Y-2019300D02*
G01*
X1244600Y-2019300D01*
D10*
X1854200Y-1587500D02*
G01*
X1879600Y-1587500D01*
X1346200Y-1587500D02*
G01*
X1320800Y-1587500D01*
X1854200Y-1587500D02*
G01*
X1854200Y-1663700D01*
X1854200Y-1511300D02*
G01*
X1854200Y-1587500D01*
X1346200Y-1511300D02*
G01*
X1854200Y-1511300D01*
X1346200Y-1587500D02*
G01*
X1346200Y-1511300D01*
X1346200Y-1663700D02*
G01*
X1346200Y-1587500D01*
X1854200Y-1663700D02*
G01*
X1346200Y-1663700D01*
X1270000Y-1244600D02*
G01*
X1244600Y-1244600D01*
X1778000Y-1244600D02*
G01*
X1803400Y-1244600D01*
X1270000Y-1244600D02*
G01*
X1270000Y-1168400D01*
X1270000Y-1320800D02*
G01*
X1270000Y-1244600D01*
X1778000Y-1320800D02*
G01*
X1270000Y-1320800D01*
X1778000Y-1244600D02*
G01*
X1778000Y-1320800D01*
X1778000Y-1168400D02*
G01*
X1778000Y-1244600D01*
X1270000Y-1168400D02*
G01*
X1778000Y-1168400D01*
X1295400Y-4622800D02*
G01*
X1295400Y-4648200D01*
X1295400Y-4114800D02*
G01*
X1295400Y-4089400D01*
X1295400Y-4622800D02*
G01*
X1219200Y-4622800D01*
X1371600Y-4622800D02*
G01*
X1295400Y-4622800D01*
X1371600Y-4114800D02*
G01*
X1371600Y-4622800D01*
X1295400Y-4114800D02*
G01*
X1371600Y-4114800D01*
X1219200Y-4114800D02*
G01*
X1295400Y-4114800D01*
X1219200Y-4622800D02*
G01*
X1219200Y-4114800D01*
X1765300Y-4622800D02*
G01*
X1765300Y-4648200D01*
X1765300Y-4114800D02*
G01*
X1765300Y-4089400D01*
X1765300Y-4622800D02*
G01*
X1689100Y-4622800D01*
X1841500Y-4622800D02*
G01*
X1765300Y-4622800D01*
X1841500Y-4114800D02*
G01*
X1841500Y-4622800D01*
X1765300Y-4114800D02*
G01*
X1841500Y-4114800D01*
X1689100Y-4114800D02*
G01*
X1765300Y-4114800D01*
X1689100Y-4622800D02*
G01*
X1689100Y-4114800D01*
X1257300Y-5143500D02*
G01*
X1231900Y-5143500D01*
X1765300Y-5143500D02*
G01*
X1790700Y-5143500D01*
X1257300Y-5143500D02*
G01*
X1257300Y-5067300D01*
X1257300Y-5219700D02*
G01*
X1257300Y-5143500D01*
X1765300Y-5219700D02*
G01*
X1257300Y-5219700D01*
X1765300Y-5143500D02*
G01*
X1765300Y-5219700D01*
X1765300Y-5067300D02*
G01*
X1765300Y-5143500D01*
X1257300Y-5067300D02*
G01*
X1765300Y-5067300D01*
X1358900Y-3517900D02*
G01*
X1358900Y-3543300D01*
X1358900Y-3009900D02*
G01*
X1358900Y-2984500D01*
X1358900Y-3517900D02*
G01*
X1282700Y-3517900D01*
X1435100Y-3517900D02*
G01*
X1358900Y-3517900D01*
X1435100Y-3009900D02*
G01*
X1435100Y-3517900D01*
X1358900Y-3009900D02*
G01*
X1435100Y-3009900D01*
X1282700Y-3009900D02*
G01*
X1358900Y-3009900D01*
X1282700Y-3517900D02*
G01*
X1282700Y-3009900D01*
M02*
