G04 Layer: TopLayer*
G04 EasyEDA v6.4.31, 2022-02-18 10:26:20*
G04 Gerber Generator version 0.2*
G04 Scale: 100 percent, Rotated: No, Reflected: No *
G04 Dimensions in millimeters *
G04 leading zeros omitted , absolute positions ,4 integer and 5 decimal *
%FSLAX45Y45*%
%MOMM*%

%ADD11C,0.8000*%
%ADD12C,1.5748*%
%ADD14C,1.6000*%

%LPD*%
D11*
X3035300Y-1231188D02*
G01*
X3104794Y-1231188D01*
X3407257Y-928725D01*
X3407257Y-582701D01*
X3014725Y-190169D01*
X486282Y-190169D01*
X229488Y-446963D01*
X229488Y-583844D01*
X403656Y-758012D01*
X482600Y-758012D01*
X1841500Y-1193800D02*
G01*
X1841500Y-1233195D01*
X1066698Y-2007996D01*
X482600Y-2007996D01*
X1841500Y-647700D02*
G01*
X1841500Y-605434D01*
X1714830Y-478764D01*
X1455597Y-478764D01*
X982802Y-951560D01*
X982802Y-1336649D01*
X561441Y-1758010D01*
X482600Y-1758010D01*
X2095500Y-1193800D02*
G01*
X2308097Y-981202D01*
X3035300Y-981202D01*
X3035300Y-981202D02*
G01*
X3110458Y-981202D01*
X3275584Y-816076D01*
X3275584Y-645896D01*
X3185337Y-555650D01*
X2187549Y-555650D01*
X2095500Y-647700D01*
X482600Y-508000D02*
G01*
X657047Y-333552D01*
X1781352Y-333552D01*
X2095500Y-647700D01*
X1587500Y-825957D02*
G01*
X2249474Y-825957D01*
X2344242Y-731189D01*
X3035300Y-731189D01*
X1587500Y-1193800D02*
G01*
X1587500Y-825957D01*
X1587500Y-825957D02*
G01*
X1587500Y-647700D01*
X482600Y-1258011D02*
G01*
X412064Y-1258011D01*
X92735Y-1577339D01*
X92735Y-2131085D01*
X277317Y-2315667D01*
X3013633Y-2315667D01*
X3285286Y-2044014D01*
X3285286Y-1663090D01*
X3103397Y-1481201D01*
X3035300Y-1481201D01*
X482600Y-1507997D02*
G01*
X415036Y-1507997D01*
X236753Y-1686280D01*
X236753Y-2081834D01*
X340385Y-2185466D01*
X1981911Y-2185466D01*
X2436190Y-1731187D01*
X3035300Y-1731187D01*
D12*
G01*
X2095500Y-647700D03*
G01*
X1841500Y-647700D03*
G36*
X1508760Y-568960D02*
G01*
X1666239Y-568960D01*
X1666239Y-726439D01*
X1508760Y-726439D01*
G37*
G01*
X2095500Y-1193800D03*
G01*
X1841500Y-1193800D03*
G36*
X1508760Y-1115060D02*
G01*
X1666239Y-1115060D01*
X1666239Y-1272539D01*
X1508760Y-1272539D01*
G37*
D14*
X2965300Y-1981200D02*
G01*
X3105299Y-1981200D01*
X2965300Y-1731187D02*
G01*
X3105299Y-1731187D01*
X2965300Y-1481201D02*
G01*
X3105299Y-1481201D01*
X2965300Y-1231188D02*
G01*
X3105299Y-1231188D01*
X2965300Y-981202D02*
G01*
X3105299Y-981202D01*
X2965300Y-731189D02*
G01*
X3105299Y-731189D01*
X552599Y-508000D02*
G01*
X412600Y-508000D01*
X552599Y-758012D02*
G01*
X412600Y-758012D01*
X552599Y-1007998D02*
G01*
X412600Y-1007998D01*
X552599Y-1258011D02*
G01*
X412600Y-1258011D01*
X552599Y-1507997D02*
G01*
X412600Y-1507997D01*
X552599Y-1758010D02*
G01*
X412600Y-1758010D01*
X552599Y-2007996D02*
G01*
X412600Y-2007996D01*
M02*
