G04 Layer: TopSolderMaskLayer*
G04 EasyEDA v6.4.25, 2022-02-05T13:35:09+01:00*
G04 1f559c24abfb2adb4286a3190d27404d,956263b731bf459f90372ec277b1d7cd,10*
G04 Gerber Generator version 0.2*
G04 Scale: 100 percent, Rotated: No, Reflected: No *
G04 Dimensions in millimeters *
G04 leading zeros omitted , absolute positions ,4 integer and 5 decimal *
%FSLAX45Y45*%
%MOMM*%

%ADD15C,1.7780*%
%ADD20C,1.8032*%
%ADD21C,1.9812*%
%ADD23C,1.9812*%

%LPD*%
D20*
X787400Y-361800D02*
G01*
X787400Y-501799D01*
X1037412Y-361800D02*
G01*
X1037412Y-501799D01*
X1287398Y-361800D02*
G01*
X1287398Y-501799D01*
X1537411Y-361800D02*
G01*
X1537411Y-501799D01*
X1787397Y-361800D02*
G01*
X1787397Y-501799D01*
X2037410Y-361800D02*
G01*
X2037410Y-501799D01*
X2287397Y-361800D02*
G01*
X2287397Y-501799D01*
D15*
G01*
X1689100Y-2146000D03*
G01*
X1435100Y-2146000D03*
G01*
X1181100Y-2146000D03*
G01*
X1943100Y-2146000D03*
D21*
G01*
X2578100Y-1028700D03*
G01*
X2578100Y-1790700D03*
G01*
X1308100Y-3454400D03*
G01*
X1308100Y-2692400D03*
G01*
X1816100Y-5092700D03*
G01*
X1054100Y-5092700D03*
G01*
X1574800Y-3924300D03*
G01*
X1574800Y-4686300D03*
G01*
X812800Y-876300D03*
G01*
X1574800Y-876300D03*
G01*
X1028700Y-3898900D03*
G01*
X1028700Y-4660900D03*
G36*
X586739Y-1521460D02*
G01*
X586739Y-1323339D01*
X784860Y-1323339D01*
X784860Y-1521460D01*
G37*
D23*
G01*
X685800Y-1676400D03*
G01*
X685800Y-1930400D03*
G01*
X685800Y-2184400D03*
G01*
X685800Y-2438400D03*
G01*
X685800Y-2692400D03*
G01*
X685800Y-2946400D03*
G01*
X685800Y-3200400D03*
G01*
X685800Y-3454400D03*
G01*
X685800Y-3708400D03*
G01*
X685800Y-3962400D03*
G01*
X685800Y-4216400D03*
G01*
X685800Y-4470400D03*
G01*
X685800Y-4724400D03*
G01*
X685800Y-4978400D03*
G01*
X2209800Y-1422400D03*
G01*
X2209800Y-1676400D03*
G01*
X2209800Y-1930400D03*
G01*
X2209800Y-2184400D03*
G01*
X2209800Y-2438400D03*
G01*
X2209800Y-2692400D03*
G01*
X2209800Y-2946400D03*
G01*
X2209800Y-3200400D03*
G01*
X2209800Y-3708400D03*
G01*
X2209800Y-3962400D03*
G01*
X2209800Y-4216400D03*
G01*
X2209800Y-4470400D03*
G01*
X2209800Y-4724400D03*
G01*
X2209800Y-4978400D03*
M02*
