M48
METRIC,LZ,000.000
;FILE_FORMAT=3:3
;TYPE=PLATED
;Layer: Drill PTH
;EasyEDA v6.4.25, 2022-02-05T13:35:09+01:00
;1f559c24abfb2adb4286a3190d27404d,956263b731bf459f90372ec277b1d7cd,10
;Gerber Generator version 0.2
;Holesize 1 = 0.889 mm
T01C0.889
;Holesize 2 = 0.900 mm
T02C0.900
;Holesize 3 = 0.915 mm
T03C0.915
;Holesize 4 = 1.101 mm
T04C1.101
%
G05
G90
T01
X016891Y-021460
X014351Y-021460
X011811Y-021460
X019431Y-021460
T02
X025781Y-010287
X025781Y-017907
X013081Y-034544
X013081Y-026924
X018161Y-050927
X010541Y-050927
X015748Y-039243
X015748Y-046863
X008128Y-008763
X015748Y-008763
X010287Y-038989
X010287Y-046609
T03
X006858Y-014224
X006858Y-016764
X006858Y-019304
X006858Y-021844
X006858Y-024384
X006858Y-026924
X006858Y-029464
X006858Y-032004
X006858Y-034544
X006858Y-037084
X006858Y-039624
X006858Y-042164
X006858Y-044704
X006858Y-047244
X006858Y-049784
X022098Y-014224
X022098Y-016764
X022098Y-019304
X022098Y-021844
X022098Y-024384
X022098Y-026924
X022098Y-029464
X022098Y-032004
X022098Y-037084
X022098Y-039624
X022098Y-042164
X022098Y-044704
X022098Y-047244
X022098Y-049784
T04
X007874Y-004318
X010374Y-004318
X012874Y-004318
X015374Y-004318
X017874Y-004318
X020374Y-004318
X022874Y-004318
M30
